<mxfile host="app.diagrams.net" modified="2020-07-18T15:48:00.873Z" agent="5.0 (Windows NT 10.0; Win64; x64) AppleWebKit/537.36 (KHTML, like Gecko) Chrome/83.0.4103.106 YaBrowser/20.7.1.70 Yowser/2.5 Safari/537.36" etag="W8VknjWqStxVEkYqmusz" version="13.4.6" type="github">
  <diagram id="GfxbMXtH6MXTsTzPyRCo" name="Page-1">
    <mxGraphModel dx="981" dy="544" grid="1" gridSize="10" guides="1" tooltips="1" connect="1" arrows="1" fold="1" page="1" pageScale="1" pageWidth="827" pageHeight="1169" math="0" shadow="0">
      <root>
        <mxCell id="0" />
        <mxCell id="1" parent="0" />
        <mxCell id="fzq1k9dkUvf0WdeCDBml-178" value="" style="edgeStyle=entityRelationEdgeStyle;fontSize=12;html=1;endArrow=ERzeroToMany;startArrow=ERmandOne;" edge="1" parent="1" source="fzq1k9dkUvf0WdeCDBml-35" target="fzq1k9dkUvf0WdeCDBml-110">
          <mxGeometry width="100" height="100" relative="1" as="geometry">
            <mxPoint x="380" y="570" as="sourcePoint" />
            <mxPoint x="480" y="470" as="targetPoint" />
          </mxGeometry>
        </mxCell>
        <mxCell id="fzq1k9dkUvf0WdeCDBml-181" value="" style="edgeStyle=entityRelationEdgeStyle;fontSize=12;html=1;endArrow=ERzeroToMany;startArrow=ERmandOne;entryX=0;entryY=0.5;entryDx=0;entryDy=0;exitX=1;exitY=0.5;exitDx=0;exitDy=0;" edge="1" parent="1" source="fzq1k9dkUvf0WdeCDBml-78" target="fzq1k9dkUvf0WdeCDBml-120">
          <mxGeometry width="100" height="100" relative="1" as="geometry">
            <mxPoint x="520" y="415" as="sourcePoint" />
            <mxPoint x="480" y="470" as="targetPoint" />
          </mxGeometry>
        </mxCell>
        <mxCell id="fzq1k9dkUvf0WdeCDBml-182" value="" style="fontSize=12;html=1;endArrow=ERoneToMany;startArrow=ERmandOne;entryX=0;entryY=0.5;entryDx=0;entryDy=0;exitX=1;exitY=0.5;exitDx=0;exitDy=0;" edge="1" parent="1" source="fzq1k9dkUvf0WdeCDBml-137" target="fzq1k9dkUvf0WdeCDBml-81">
          <mxGeometry width="100" height="100" relative="1" as="geometry">
            <mxPoint x="390" y="385" as="sourcePoint" />
            <mxPoint x="310" y="480" as="targetPoint" />
          </mxGeometry>
        </mxCell>
        <mxCell id="fzq1k9dkUvf0WdeCDBml-77" value="tests" style="shape=table;startSize=50;container=1;collapsible=1;childLayout=tableLayout;fixedRows=1;rowLines=0;fontStyle=1;align=center;resizeLast=1;" vertex="1" parent="1">
          <mxGeometry x="230" y="410" width="140" height="170" as="geometry">
            <mxRectangle x="60" y="410" width="60" height="30" as="alternateBounds" />
          </mxGeometry>
        </mxCell>
        <mxCell id="fzq1k9dkUvf0WdeCDBml-78" value="" style="shape=partialRectangle;collapsible=0;dropTarget=0;pointerEvents=0;fillColor=none;top=0;left=0;bottom=0;right=0;points=[[0,0.5],[1,0.5]];portConstraint=eastwest;" vertex="1" parent="fzq1k9dkUvf0WdeCDBml-77">
          <mxGeometry y="50" width="140" height="30" as="geometry" />
        </mxCell>
        <mxCell id="fzq1k9dkUvf0WdeCDBml-79" value="PK" style="shape=partialRectangle;connectable=0;fillColor=none;top=0;left=0;bottom=0;right=0;fontStyle=1;overflow=hidden;" vertex="1" parent="fzq1k9dkUvf0WdeCDBml-78">
          <mxGeometry width="60" height="30" as="geometry" />
        </mxCell>
        <mxCell id="fzq1k9dkUvf0WdeCDBml-80" value="id" style="shape=partialRectangle;connectable=0;fillColor=none;top=0;left=0;bottom=0;right=0;align=left;spacingLeft=6;fontStyle=5;overflow=hidden;" vertex="1" parent="fzq1k9dkUvf0WdeCDBml-78">
          <mxGeometry x="60" width="80" height="30" as="geometry" />
        </mxCell>
        <mxCell id="fzq1k9dkUvf0WdeCDBml-81" value="" style="shape=partialRectangle;collapsible=0;dropTarget=0;pointerEvents=0;fillColor=none;top=0;left=0;bottom=1;right=0;points=[[0,0.5],[1,0.5]];portConstraint=eastwest;" vertex="1" parent="fzq1k9dkUvf0WdeCDBml-77">
          <mxGeometry y="80" width="140" height="30" as="geometry" />
        </mxCell>
        <mxCell id="fzq1k9dkUvf0WdeCDBml-82" value="FK" style="shape=partialRectangle;connectable=0;fillColor=none;top=0;left=0;bottom=0;right=0;fontStyle=1;overflow=hidden;" vertex="1" parent="fzq1k9dkUvf0WdeCDBml-81">
          <mxGeometry width="60" height="30" as="geometry" />
        </mxCell>
        <mxCell id="fzq1k9dkUvf0WdeCDBml-83" value="category_id" style="shape=partialRectangle;connectable=0;fillColor=none;top=0;left=0;bottom=0;right=0;align=left;spacingLeft=6;fontStyle=1;overflow=hidden;" vertex="1" parent="fzq1k9dkUvf0WdeCDBml-81">
          <mxGeometry x="60" width="80" height="30" as="geometry" />
        </mxCell>
        <mxCell id="fzq1k9dkUvf0WdeCDBml-84" value="" style="shape=partialRectangle;collapsible=0;dropTarget=0;pointerEvents=0;fillColor=none;top=0;left=0;bottom=0;right=0;points=[[0,0.5],[1,0.5]];portConstraint=eastwest;" vertex="1" parent="fzq1k9dkUvf0WdeCDBml-77">
          <mxGeometry y="110" width="140" height="30" as="geometry" />
        </mxCell>
        <mxCell id="fzq1k9dkUvf0WdeCDBml-85" value="" style="shape=partialRectangle;connectable=0;fillColor=none;top=0;left=0;bottom=0;right=0;editable=1;overflow=hidden;" vertex="1" parent="fzq1k9dkUvf0WdeCDBml-84">
          <mxGeometry width="60" height="30" as="geometry" />
        </mxCell>
        <mxCell id="fzq1k9dkUvf0WdeCDBml-86" value="title" style="shape=partialRectangle;connectable=0;fillColor=none;top=0;left=0;bottom=0;right=0;align=left;spacingLeft=6;overflow=hidden;" vertex="1" parent="fzq1k9dkUvf0WdeCDBml-84">
          <mxGeometry x="60" width="80" height="30" as="geometry" />
        </mxCell>
        <mxCell id="fzq1k9dkUvf0WdeCDBml-87" value="" style="shape=partialRectangle;collapsible=0;dropTarget=0;pointerEvents=0;fillColor=none;top=0;left=0;bottom=0;right=0;points=[[0,0.5],[1,0.5]];portConstraint=eastwest;" vertex="1" parent="fzq1k9dkUvf0WdeCDBml-77">
          <mxGeometry y="140" width="140" height="30" as="geometry" />
        </mxCell>
        <mxCell id="fzq1k9dkUvf0WdeCDBml-88" value="" style="shape=partialRectangle;connectable=0;fillColor=none;top=0;left=0;bottom=0;right=0;editable=1;overflow=hidden;" vertex="1" parent="fzq1k9dkUvf0WdeCDBml-87">
          <mxGeometry width="60" height="30" as="geometry" />
        </mxCell>
        <mxCell id="fzq1k9dkUvf0WdeCDBml-89" value="level" style="shape=partialRectangle;connectable=0;fillColor=none;top=0;left=0;bottom=0;right=0;align=left;spacingLeft=6;overflow=hidden;" vertex="1" parent="fzq1k9dkUvf0WdeCDBml-87">
          <mxGeometry x="60" width="80" height="30" as="geometry" />
        </mxCell>
        <mxCell id="fzq1k9dkUvf0WdeCDBml-136" value="categories" style="shape=table;startSize=30;container=1;collapsible=1;childLayout=tableLayout;fixedRows=1;rowLines=0;fontStyle=1;align=center;resizeLast=1;" vertex="1" parent="1">
          <mxGeometry x="20" y="460" width="130" height="150" as="geometry" />
        </mxCell>
        <mxCell id="fzq1k9dkUvf0WdeCDBml-137" value="" style="shape=partialRectangle;collapsible=0;dropTarget=0;pointerEvents=0;fillColor=none;top=0;left=0;bottom=1;right=0;points=[[0,0.5],[1,0.5]];portConstraint=eastwest;" vertex="1" parent="fzq1k9dkUvf0WdeCDBml-136">
          <mxGeometry y="30" width="130" height="30" as="geometry" />
        </mxCell>
        <mxCell id="fzq1k9dkUvf0WdeCDBml-138" value="PK" style="shape=partialRectangle;connectable=0;fillColor=none;top=0;left=0;bottom=0;right=0;fontStyle=1;overflow=hidden;" vertex="1" parent="fzq1k9dkUvf0WdeCDBml-137">
          <mxGeometry width="30" height="30" as="geometry" />
        </mxCell>
        <mxCell id="fzq1k9dkUvf0WdeCDBml-139" value="id" style="shape=partialRectangle;connectable=0;fillColor=none;top=0;left=0;bottom=0;right=0;align=left;spacingLeft=6;fontStyle=5;overflow=hidden;" vertex="1" parent="fzq1k9dkUvf0WdeCDBml-137">
          <mxGeometry x="30" width="100" height="30" as="geometry" />
        </mxCell>
        <mxCell id="fzq1k9dkUvf0WdeCDBml-140" value="" style="shape=partialRectangle;collapsible=0;dropTarget=0;pointerEvents=0;fillColor=none;top=0;left=0;bottom=0;right=0;points=[[0,0.5],[1,0.5]];portConstraint=eastwest;" vertex="1" parent="fzq1k9dkUvf0WdeCDBml-136">
          <mxGeometry y="60" width="130" height="40" as="geometry" />
        </mxCell>
        <mxCell id="fzq1k9dkUvf0WdeCDBml-141" value="" style="shape=partialRectangle;connectable=0;fillColor=none;top=0;left=0;bottom=0;right=0;editable=1;overflow=hidden;" vertex="1" parent="fzq1k9dkUvf0WdeCDBml-140">
          <mxGeometry width="30" height="40" as="geometry" />
        </mxCell>
        <mxCell id="fzq1k9dkUvf0WdeCDBml-142" value="title" style="shape=partialRectangle;connectable=0;fillColor=none;top=0;left=0;bottom=0;right=0;align=left;spacingLeft=6;overflow=hidden;" vertex="1" parent="fzq1k9dkUvf0WdeCDBml-140">
          <mxGeometry x="30" width="100" height="40" as="geometry" />
        </mxCell>
        <mxCell id="fzq1k9dkUvf0WdeCDBml-143" value="" style="shape=partialRectangle;collapsible=0;dropTarget=0;pointerEvents=0;fillColor=none;top=0;left=0;bottom=0;right=0;points=[[0,0.5],[1,0.5]];portConstraint=eastwest;" vertex="1" parent="fzq1k9dkUvf0WdeCDBml-136">
          <mxGeometry y="100" width="130" height="30" as="geometry" />
        </mxCell>
        <mxCell id="fzq1k9dkUvf0WdeCDBml-144" value="" style="shape=partialRectangle;connectable=0;fillColor=none;top=0;left=0;bottom=0;right=0;editable=1;overflow=hidden;" vertex="1" parent="fzq1k9dkUvf0WdeCDBml-143">
          <mxGeometry width="30" height="30" as="geometry" />
        </mxCell>
        <mxCell id="fzq1k9dkUvf0WdeCDBml-145" value="" style="shape=partialRectangle;connectable=0;fillColor=none;top=0;left=0;bottom=0;right=0;align=left;spacingLeft=6;overflow=hidden;" vertex="1" parent="fzq1k9dkUvf0WdeCDBml-143">
          <mxGeometry x="30" width="100" height="30" as="geometry" />
        </mxCell>
        <mxCell id="fzq1k9dkUvf0WdeCDBml-146" value="" style="shape=partialRectangle;collapsible=0;dropTarget=0;pointerEvents=0;fillColor=none;top=0;left=0;bottom=0;right=0;points=[[0,0.5],[1,0.5]];portConstraint=eastwest;" vertex="1" parent="fzq1k9dkUvf0WdeCDBml-136">
          <mxGeometry y="130" width="130" height="20" as="geometry" />
        </mxCell>
        <mxCell id="fzq1k9dkUvf0WdeCDBml-147" value="" style="shape=partialRectangle;connectable=0;fillColor=none;top=0;left=0;bottom=0;right=0;editable=1;overflow=hidden;" vertex="1" parent="fzq1k9dkUvf0WdeCDBml-146">
          <mxGeometry width="30" height="20" as="geometry" />
        </mxCell>
        <mxCell id="fzq1k9dkUvf0WdeCDBml-148" value="" style="shape=partialRectangle;connectable=0;fillColor=none;top=0;left=0;bottom=0;right=0;align=left;spacingLeft=6;overflow=hidden;" vertex="1" parent="fzq1k9dkUvf0WdeCDBml-146">
          <mxGeometry x="30" width="100" height="20" as="geometry" />
        </mxCell>
        <mxCell id="fzq1k9dkUvf0WdeCDBml-106" value="test passages" style="shape=table;startSize=30;container=1;collapsible=1;childLayout=tableLayout;fixedRows=1;rowLines=0;fontStyle=1;align=center;resizeLast=1;" vertex="1" parent="1">
          <mxGeometry x="480" y="490" width="150" height="160" as="geometry" />
        </mxCell>
        <mxCell id="fzq1k9dkUvf0WdeCDBml-107" value="" style="shape=partialRectangle;collapsible=0;dropTarget=0;pointerEvents=0;fillColor=none;top=0;left=0;bottom=0;right=0;points=[[0,0.5],[1,0.5]];portConstraint=eastwest;" vertex="1" parent="fzq1k9dkUvf0WdeCDBml-106">
          <mxGeometry y="30" width="150" height="30" as="geometry" />
        </mxCell>
        <mxCell id="fzq1k9dkUvf0WdeCDBml-108" value="PK" style="shape=partialRectangle;connectable=0;fillColor=none;top=0;left=0;bottom=0;right=0;fontStyle=1;overflow=hidden;" vertex="1" parent="fzq1k9dkUvf0WdeCDBml-107">
          <mxGeometry width="60" height="30" as="geometry" />
        </mxCell>
        <mxCell id="fzq1k9dkUvf0WdeCDBml-109" value="id" style="shape=partialRectangle;connectable=0;fillColor=none;top=0;left=0;bottom=0;right=0;align=left;spacingLeft=6;fontStyle=5;overflow=hidden;" vertex="1" parent="fzq1k9dkUvf0WdeCDBml-107">
          <mxGeometry x="60" width="90" height="30" as="geometry" />
        </mxCell>
        <mxCell id="fzq1k9dkUvf0WdeCDBml-120" value="" style="shape=partialRectangle;collapsible=0;dropTarget=0;pointerEvents=0;fillColor=none;top=0;left=0;bottom=0;right=0;points=[[0,0.5],[1,0.5]];portConstraint=eastwest;" vertex="1" parent="fzq1k9dkUvf0WdeCDBml-106">
          <mxGeometry y="60" width="150" height="30" as="geometry" />
        </mxCell>
        <mxCell id="fzq1k9dkUvf0WdeCDBml-121" value="FK1" style="shape=partialRectangle;connectable=0;fillColor=none;top=0;left=0;bottom=0;right=0;fontStyle=1;overflow=hidden;" vertex="1" parent="fzq1k9dkUvf0WdeCDBml-120">
          <mxGeometry width="60" height="30" as="geometry" />
        </mxCell>
        <mxCell id="fzq1k9dkUvf0WdeCDBml-122" value="test_id" style="shape=partialRectangle;connectable=0;fillColor=none;top=0;left=0;bottom=0;right=0;align=left;spacingLeft=6;fontStyle=1;overflow=hidden;" vertex="1" parent="fzq1k9dkUvf0WdeCDBml-120">
          <mxGeometry x="60" width="90" height="30" as="geometry" />
        </mxCell>
        <mxCell id="fzq1k9dkUvf0WdeCDBml-110" value="" style="shape=partialRectangle;collapsible=0;dropTarget=0;pointerEvents=0;fillColor=none;top=0;left=0;bottom=1;right=0;points=[[0,0.5],[1,0.5]];portConstraint=eastwest;" vertex="1" parent="fzq1k9dkUvf0WdeCDBml-106">
          <mxGeometry y="90" width="150" height="30" as="geometry" />
        </mxCell>
        <mxCell id="fzq1k9dkUvf0WdeCDBml-111" value="FK2" style="shape=partialRectangle;connectable=0;fillColor=none;top=0;left=0;bottom=0;right=0;fontStyle=1;overflow=hidden;" vertex="1" parent="fzq1k9dkUvf0WdeCDBml-110">
          <mxGeometry width="60" height="30" as="geometry" />
        </mxCell>
        <mxCell id="fzq1k9dkUvf0WdeCDBml-112" value="user_id" style="shape=partialRectangle;connectable=0;fillColor=none;top=0;left=0;bottom=0;right=0;align=left;spacingLeft=6;fontStyle=1;overflow=hidden;" vertex="1" parent="fzq1k9dkUvf0WdeCDBml-110">
          <mxGeometry x="60" width="90" height="30" as="geometry" />
        </mxCell>
        <mxCell id="fzq1k9dkUvf0WdeCDBml-113" value="" style="shape=partialRectangle;collapsible=0;dropTarget=0;pointerEvents=0;fillColor=none;top=0;left=0;bottom=0;right=0;points=[[0,0.5],[1,0.5]];portConstraint=eastwest;" vertex="1" parent="fzq1k9dkUvf0WdeCDBml-106">
          <mxGeometry y="120" width="150" height="20" as="geometry" />
        </mxCell>
        <mxCell id="fzq1k9dkUvf0WdeCDBml-114" value="" style="shape=partialRectangle;connectable=0;fillColor=none;top=0;left=0;bottom=0;right=0;editable=1;overflow=hidden;" vertex="1" parent="fzq1k9dkUvf0WdeCDBml-113">
          <mxGeometry width="60" height="20" as="geometry" />
        </mxCell>
        <mxCell id="fzq1k9dkUvf0WdeCDBml-115" value="" style="shape=partialRectangle;connectable=0;fillColor=none;top=0;left=0;bottom=0;right=0;align=left;spacingLeft=6;overflow=hidden;" vertex="1" parent="fzq1k9dkUvf0WdeCDBml-113">
          <mxGeometry x="60" width="90" height="20" as="geometry" />
        </mxCell>
        <mxCell id="fzq1k9dkUvf0WdeCDBml-116" value="" style="shape=partialRectangle;collapsible=0;dropTarget=0;pointerEvents=0;fillColor=none;top=0;left=0;bottom=0;right=0;points=[[0,0.5],[1,0.5]];portConstraint=eastwest;" vertex="1" parent="fzq1k9dkUvf0WdeCDBml-106">
          <mxGeometry y="140" width="150" height="20" as="geometry" />
        </mxCell>
        <mxCell id="fzq1k9dkUvf0WdeCDBml-118" value="" style="shape=partialRectangle;connectable=0;fillColor=none;top=0;left=0;bottom=0;right=0;align=left;spacingLeft=6;overflow=hidden;" vertex="1" parent="fzq1k9dkUvf0WdeCDBml-116">
          <mxGeometry width="120" height="20" as="geometry" />
        </mxCell>
        <mxCell id="fzq1k9dkUvf0WdeCDBml-117" value="" style="shape=partialRectangle;connectable=0;fillColor=none;top=0;left=0;bottom=0;right=0;editable=1;overflow=hidden;" vertex="1" parent="fzq1k9dkUvf0WdeCDBml-116">
          <mxGeometry x="120" width="30" height="20" as="geometry" />
        </mxCell>
        <mxCell id="fzq1k9dkUvf0WdeCDBml-34" value="users" style="shape=table;startSize=30;container=1;collapsible=1;childLayout=tableLayout;fixedRows=1;rowLines=0;fontStyle=1;align=center;resizeLast=1;" vertex="1" parent="1">
          <mxGeometry x="250" y="640" width="100" height="120" as="geometry" />
        </mxCell>
        <mxCell id="fzq1k9dkUvf0WdeCDBml-35" value="" style="shape=partialRectangle;collapsible=0;dropTarget=0;pointerEvents=0;fillColor=none;top=0;left=0;bottom=1;right=0;points=[[0,0.5],[1,0.5]];portConstraint=eastwest;" vertex="1" parent="fzq1k9dkUvf0WdeCDBml-34">
          <mxGeometry y="30" width="100" height="30" as="geometry" />
        </mxCell>
        <mxCell id="fzq1k9dkUvf0WdeCDBml-36" value="PK" style="shape=partialRectangle;connectable=0;fillColor=none;top=0;left=0;bottom=0;right=0;fontStyle=1;overflow=hidden;" vertex="1" parent="fzq1k9dkUvf0WdeCDBml-35">
          <mxGeometry width="30" height="30" as="geometry" />
        </mxCell>
        <mxCell id="fzq1k9dkUvf0WdeCDBml-37" value="id" style="shape=partialRectangle;connectable=0;fillColor=none;top=0;left=0;bottom=0;right=0;align=left;spacingLeft=6;fontStyle=5;overflow=hidden;" vertex="1" parent="fzq1k9dkUvf0WdeCDBml-35">
          <mxGeometry x="30" width="70" height="30" as="geometry" />
        </mxCell>
        <mxCell id="fzq1k9dkUvf0WdeCDBml-38" value="" style="shape=partialRectangle;collapsible=0;dropTarget=0;pointerEvents=0;fillColor=none;top=0;left=0;bottom=0;right=0;points=[[0,0.5],[1,0.5]];portConstraint=eastwest;" vertex="1" parent="fzq1k9dkUvf0WdeCDBml-34">
          <mxGeometry y="60" width="100" height="30" as="geometry" />
        </mxCell>
        <mxCell id="fzq1k9dkUvf0WdeCDBml-39" value="" style="shape=partialRectangle;connectable=0;fillColor=none;top=0;left=0;bottom=0;right=0;editable=1;overflow=hidden;" vertex="1" parent="fzq1k9dkUvf0WdeCDBml-38">
          <mxGeometry width="30" height="30" as="geometry" />
        </mxCell>
        <mxCell id="fzq1k9dkUvf0WdeCDBml-40" value="name" style="shape=partialRectangle;connectable=0;fillColor=none;top=0;left=0;bottom=0;right=0;align=left;spacingLeft=6;overflow=hidden;" vertex="1" parent="fzq1k9dkUvf0WdeCDBml-38">
          <mxGeometry x="30" width="70" height="30" as="geometry" />
        </mxCell>
        <mxCell id="fzq1k9dkUvf0WdeCDBml-41" value="" style="shape=partialRectangle;collapsible=0;dropTarget=0;pointerEvents=0;fillColor=none;top=0;left=0;bottom=0;right=0;points=[[0,0.5],[1,0.5]];portConstraint=eastwest;" vertex="1" parent="fzq1k9dkUvf0WdeCDBml-34">
          <mxGeometry y="90" width="100" height="30" as="geometry" />
        </mxCell>
        <mxCell id="fzq1k9dkUvf0WdeCDBml-42" value="" style="shape=partialRectangle;connectable=0;fillColor=none;top=0;left=0;bottom=0;right=0;editable=1;overflow=hidden;" vertex="1" parent="fzq1k9dkUvf0WdeCDBml-41">
          <mxGeometry width="30" height="30" as="geometry" />
        </mxCell>
        <mxCell id="fzq1k9dkUvf0WdeCDBml-43" value="password" style="shape=partialRectangle;connectable=0;fillColor=none;top=0;left=0;bottom=0;right=0;align=left;spacingLeft=6;overflow=hidden;" vertex="1" parent="fzq1k9dkUvf0WdeCDBml-41">
          <mxGeometry x="30" width="70" height="30" as="geometry" />
        </mxCell>
        <mxCell id="fzq1k9dkUvf0WdeCDBml-123" value="questions" style="shape=table;startSize=30;container=1;collapsible=1;childLayout=tableLayout;fixedRows=1;rowLines=0;fontStyle=1;align=center;resizeLast=1;" vertex="1" parent="1">
          <mxGeometry x="230" y="210" width="130" height="130" as="geometry">
            <mxRectangle x="40" y="780" width="90" height="30" as="alternateBounds" />
          </mxGeometry>
        </mxCell>
        <mxCell id="fzq1k9dkUvf0WdeCDBml-124" value="" style="shape=partialRectangle;collapsible=0;dropTarget=0;pointerEvents=0;fillColor=none;top=0;left=0;bottom=0;right=0;points=[[0,0.5],[1,0.5]];portConstraint=eastwest;" vertex="1" parent="fzq1k9dkUvf0WdeCDBml-123">
          <mxGeometry y="30" width="130" height="30" as="geometry" />
        </mxCell>
        <mxCell id="fzq1k9dkUvf0WdeCDBml-125" value="PK" style="shape=partialRectangle;connectable=0;fillColor=none;top=0;left=0;bottom=0;right=0;fontStyle=1;overflow=hidden;" vertex="1" parent="fzq1k9dkUvf0WdeCDBml-124">
          <mxGeometry width="60" height="30" as="geometry" />
        </mxCell>
        <mxCell id="fzq1k9dkUvf0WdeCDBml-126" value="id" style="shape=partialRectangle;connectable=0;fillColor=none;top=0;left=0;bottom=0;right=0;align=left;spacingLeft=6;fontStyle=5;overflow=hidden;" vertex="1" parent="fzq1k9dkUvf0WdeCDBml-124">
          <mxGeometry x="60" width="70" height="30" as="geometry" />
        </mxCell>
        <mxCell id="fzq1k9dkUvf0WdeCDBml-127" value="" style="shape=partialRectangle;collapsible=0;dropTarget=0;pointerEvents=0;fillColor=none;top=0;left=0;bottom=1;right=0;points=[[0,0.5],[1,0.5]];portConstraint=eastwest;" vertex="1" parent="fzq1k9dkUvf0WdeCDBml-123">
          <mxGeometry y="60" width="130" height="30" as="geometry" />
        </mxCell>
        <mxCell id="fzq1k9dkUvf0WdeCDBml-128" value="FK" style="shape=partialRectangle;connectable=0;fillColor=none;top=0;left=0;bottom=0;right=0;fontStyle=1;overflow=hidden;" vertex="1" parent="fzq1k9dkUvf0WdeCDBml-127">
          <mxGeometry width="60" height="30" as="geometry" />
        </mxCell>
        <mxCell id="fzq1k9dkUvf0WdeCDBml-129" value="test_id" style="shape=partialRectangle;connectable=0;fillColor=none;top=0;left=0;bottom=0;right=0;align=left;spacingLeft=6;fontStyle=1;overflow=hidden;" vertex="1" parent="fzq1k9dkUvf0WdeCDBml-127">
          <mxGeometry x="60" width="70" height="30" as="geometry" />
        </mxCell>
        <mxCell id="fzq1k9dkUvf0WdeCDBml-130" value="" style="shape=partialRectangle;collapsible=0;dropTarget=0;pointerEvents=0;fillColor=none;top=0;left=0;bottom=0;right=0;points=[[0,0.5],[1,0.5]];portConstraint=eastwest;" vertex="1" parent="fzq1k9dkUvf0WdeCDBml-123">
          <mxGeometry y="90" width="130" height="20" as="geometry" />
        </mxCell>
        <mxCell id="fzq1k9dkUvf0WdeCDBml-131" value="" style="shape=partialRectangle;connectable=0;fillColor=none;top=0;left=0;bottom=0;right=0;editable=1;overflow=hidden;" vertex="1" parent="fzq1k9dkUvf0WdeCDBml-130">
          <mxGeometry width="60" height="20" as="geometry" />
        </mxCell>
        <mxCell id="fzq1k9dkUvf0WdeCDBml-132" value="body" style="shape=partialRectangle;connectable=0;fillColor=none;top=0;left=0;bottom=0;right=0;align=left;spacingLeft=6;overflow=hidden;" vertex="1" parent="fzq1k9dkUvf0WdeCDBml-130">
          <mxGeometry x="60" width="70" height="20" as="geometry" />
        </mxCell>
        <mxCell id="fzq1k9dkUvf0WdeCDBml-133" value="" style="shape=partialRectangle;collapsible=0;dropTarget=0;pointerEvents=0;fillColor=none;top=0;left=0;bottom=0;right=0;points=[[0,0.5],[1,0.5]];portConstraint=eastwest;" vertex="1" parent="fzq1k9dkUvf0WdeCDBml-123">
          <mxGeometry y="110" width="130" height="20" as="geometry" />
        </mxCell>
        <mxCell id="fzq1k9dkUvf0WdeCDBml-134" value="" style="shape=partialRectangle;connectable=0;fillColor=none;top=0;left=0;bottom=0;right=0;editable=1;overflow=hidden;" vertex="1" parent="fzq1k9dkUvf0WdeCDBml-133">
          <mxGeometry width="60" height="20" as="geometry" />
        </mxCell>
        <mxCell id="fzq1k9dkUvf0WdeCDBml-135" value="" style="shape=partialRectangle;connectable=0;fillColor=none;top=0;left=0;bottom=0;right=0;align=left;spacingLeft=6;overflow=hidden;" vertex="1" parent="fzq1k9dkUvf0WdeCDBml-133">
          <mxGeometry x="60" width="70" height="20" as="geometry" />
        </mxCell>
        <mxCell id="fzq1k9dkUvf0WdeCDBml-184" value="" style="fontSize=12;html=1;endArrow=ERoneToMany;startArrow=ERmandOne;exitX=0;exitY=0.5;exitDx=0;exitDy=0;entryX=0;entryY=0.5;entryDx=0;entryDy=0;" edge="1" parent="1" source="fzq1k9dkUvf0WdeCDBml-78" target="fzq1k9dkUvf0WdeCDBml-127">
          <mxGeometry width="100" height="100" relative="1" as="geometry">
            <mxPoint x="120" y="410" as="sourcePoint" />
            <mxPoint x="220" y="310" as="targetPoint" />
            <Array as="points">
              <mxPoint x="160" y="475" />
              <mxPoint x="160" y="380" />
              <mxPoint x="160" y="285" />
            </Array>
          </mxGeometry>
        </mxCell>
        <mxCell id="fzq1k9dkUvf0WdeCDBml-162" value="answers" style="shape=table;startSize=30;container=1;collapsible=1;childLayout=tableLayout;fixedRows=1;rowLines=0;fontStyle=1;align=center;resizeLast=1;" vertex="1" parent="1">
          <mxGeometry x="450" y="210" width="150" height="150" as="geometry" />
        </mxCell>
        <mxCell id="fzq1k9dkUvf0WdeCDBml-163" value="" style="shape=partialRectangle;collapsible=0;dropTarget=0;pointerEvents=0;fillColor=none;top=0;left=0;bottom=0;right=0;points=[[0,0.5],[1,0.5]];portConstraint=eastwest;" vertex="1" parent="fzq1k9dkUvf0WdeCDBml-162">
          <mxGeometry y="30" width="150" height="30" as="geometry" />
        </mxCell>
        <mxCell id="fzq1k9dkUvf0WdeCDBml-164" value="PK" style="shape=partialRectangle;connectable=0;fillColor=none;top=0;left=0;bottom=0;right=0;fontStyle=1;overflow=hidden;" vertex="1" parent="fzq1k9dkUvf0WdeCDBml-163">
          <mxGeometry width="60" height="30" as="geometry" />
        </mxCell>
        <mxCell id="fzq1k9dkUvf0WdeCDBml-165" value="id" style="shape=partialRectangle;connectable=0;fillColor=none;top=0;left=0;bottom=0;right=0;align=left;spacingLeft=6;fontStyle=5;overflow=hidden;" vertex="1" parent="fzq1k9dkUvf0WdeCDBml-163">
          <mxGeometry x="60" width="90" height="30" as="geometry" />
        </mxCell>
        <mxCell id="fzq1k9dkUvf0WdeCDBml-166" value="" style="shape=partialRectangle;collapsible=0;dropTarget=0;pointerEvents=0;fillColor=none;top=0;left=0;bottom=1;right=0;points=[[0,0.5],[1,0.5]];portConstraint=eastwest;" vertex="1" parent="fzq1k9dkUvf0WdeCDBml-162">
          <mxGeometry y="60" width="150" height="30" as="geometry" />
        </mxCell>
        <mxCell id="fzq1k9dkUvf0WdeCDBml-167" value="FK" style="shape=partialRectangle;connectable=0;fillColor=none;top=0;left=0;bottom=0;right=0;fontStyle=1;overflow=hidden;" vertex="1" parent="fzq1k9dkUvf0WdeCDBml-166">
          <mxGeometry width="60" height="30" as="geometry" />
        </mxCell>
        <mxCell id="fzq1k9dkUvf0WdeCDBml-168" value="question_id" style="shape=partialRectangle;connectable=0;fillColor=none;top=0;left=0;bottom=0;right=0;align=left;spacingLeft=6;fontStyle=1;overflow=hidden;" vertex="1" parent="fzq1k9dkUvf0WdeCDBml-166">
          <mxGeometry x="60" width="90" height="30" as="geometry" />
        </mxCell>
        <mxCell id="fzq1k9dkUvf0WdeCDBml-169" value="" style="shape=partialRectangle;collapsible=0;dropTarget=0;pointerEvents=0;fillColor=none;top=0;left=0;bottom=0;right=0;points=[[0,0.5],[1,0.5]];portConstraint=eastwest;" vertex="1" parent="fzq1k9dkUvf0WdeCDBml-162">
          <mxGeometry y="90" width="150" height="30" as="geometry" />
        </mxCell>
        <mxCell id="fzq1k9dkUvf0WdeCDBml-170" value="" style="shape=partialRectangle;connectable=0;fillColor=none;top=0;left=0;bottom=0;right=0;editable=1;overflow=hidden;" vertex="1" parent="fzq1k9dkUvf0WdeCDBml-169">
          <mxGeometry width="60" height="30" as="geometry" />
        </mxCell>
        <mxCell id="fzq1k9dkUvf0WdeCDBml-171" value="body" style="shape=partialRectangle;connectable=0;fillColor=none;top=0;left=0;bottom=0;right=0;align=left;spacingLeft=6;overflow=hidden;" vertex="1" parent="fzq1k9dkUvf0WdeCDBml-169">
          <mxGeometry x="60" width="90" height="30" as="geometry" />
        </mxCell>
        <mxCell id="fzq1k9dkUvf0WdeCDBml-172" value="" style="shape=partialRectangle;collapsible=0;dropTarget=0;pointerEvents=0;fillColor=none;top=0;left=0;bottom=0;right=0;points=[[0,0.5],[1,0.5]];portConstraint=eastwest;" vertex="1" parent="fzq1k9dkUvf0WdeCDBml-162">
          <mxGeometry y="120" width="150" height="30" as="geometry" />
        </mxCell>
        <mxCell id="fzq1k9dkUvf0WdeCDBml-173" value="" style="shape=partialRectangle;connectable=0;fillColor=none;top=0;left=0;bottom=0;right=0;editable=1;overflow=hidden;" vertex="1" parent="fzq1k9dkUvf0WdeCDBml-172">
          <mxGeometry width="60" height="30" as="geometry" />
        </mxCell>
        <mxCell id="fzq1k9dkUvf0WdeCDBml-174" value="correct" style="shape=partialRectangle;connectable=0;fillColor=none;top=0;left=0;bottom=0;right=0;align=left;spacingLeft=6;overflow=hidden;" vertex="1" parent="fzq1k9dkUvf0WdeCDBml-172">
          <mxGeometry x="60" width="90" height="30" as="geometry" />
        </mxCell>
        <mxCell id="fzq1k9dkUvf0WdeCDBml-185" value="" style="edgeStyle=entityRelationEdgeStyle;fontSize=12;html=1;endArrow=ERmandOne;startArrow=ERmandOne;entryX=0;entryY=0.5;entryDx=0;entryDy=0;exitX=1;exitY=0.5;exitDx=0;exitDy=0;" edge="1" parent="1" source="fzq1k9dkUvf0WdeCDBml-124" target="fzq1k9dkUvf0WdeCDBml-166">
          <mxGeometry width="100" height="100" relative="1" as="geometry">
            <mxPoint x="380" y="500" as="sourcePoint" />
            <mxPoint x="480" y="400" as="targetPoint" />
          </mxGeometry>
        </mxCell>
      </root>
    </mxGraphModel>
  </diagram>
</mxfile>
